<?xml version="1.0" encoding="UTF-8"?>
<svg id="Layer_2" data-name="Layer 2" xmlns="http://www.w3.org/2000/svg" viewBox="0 0 133.68 133.81">
  <defs>
    <style>
      .cls-1 {
        stroke-miterlimit: 10;
      }

      .cls-1, .cls-2, .cls-3, .cls-4, .cls-5, .cls-6 {
        stroke: #000;
        stroke-linecap: round;
      }

      .cls-1, .cls-2, .cls-6 {
        fill: none;
      }

      .cls-1, .cls-6 {
        stroke-width: 3px;
      }

      .cls-2, .cls-3, .cls-4, .cls-5, .cls-6 {
        stroke-linejoin: round;
      }

      .cls-2, .cls-4 {
        stroke-width: 3.6px;
      }

      .cls-3 {
        fill: #4f8d4a;
      }

      .cls-3, .cls-5 {
        stroke-width: 4.32px;
      }

      .cls-7, .cls-8, .cls-9, .cls-10, .cls-11, .cls-12, .cls-13 {
        stroke-width: 0px;
      }

      .cls-8, .cls-5 {
        fill: #f9e6ab;
      }

      .cls-9 {
        fill: #ff8694;
      }

      .cls-10 {
        fill: #fff;
      }

      .cls-11 {
        fill: #fc6;
      }

      .cls-12 {
        fill: #fc9;
      }

      .cls-13 {
        fill: #ecc58a;
      }

      .cls-4 {
        fill: #dbdada;
      }
    </style>
  </defs>
  <g id="_레이어_1" data-name="레이어 1">
    <path class="cls-8" d="m31.39,24.52c-1.37.93-12.61,8.79-12.57,20.22,0,1.11.02,5.88,2.96,9.99,7.29,10.2,26.14,7.36,57.08,2.71,0,0,8.74-1.31,20.83-7.52,5.51-2.83,6.72-4.22,6.9-5.67.68-5.28-12.2-10.98-17.88-13.44-17.05-7.39-40.63-17.61-57.32-6.29Z"/>
    <path class="cls-8" d="m60.12,80.26c-2.12-1.47-5.76-3.44-10.19-3.23-9.43.46-16.34,10.57-17.79,19.23-1.76,10.5-.03,20.62.98,21.83,6.52,7.89,20.53,7.11,26.86,8.06,5.57.83,24.83,2.8,32.58-7.36,6.6-8.65,1.53-20.99,10.18-26.42,2.32-1.45,4.66-1.67,4.8-3.08.31-3.14-10.82-6.74-16.44-8.16-6.53-1.65-17.03-3.26-30.98-.87Z"/>
    <g>
      <g>
        <path class="cls-9" d="m125.47,82.82c2.23,8.45-13.69,3.8-5.89-1.72-7.8,5.52-8.3-11.06-.18-6.13-8.12-4.92,7.5-10.52,5.77-2.07,1.72-8.45,11.87,4.67,3.75,4.85,8.12-.18-1.23,13.52-3.46,5.07Z"/>
        <path class="cls-6" d="m125.47,82.82c2.23,8.45-13.69,3.8-5.89-1.72-7.8,5.52-8.3-11.06-.18-6.13-8.12-4.92,7.5-10.52,5.77-2.07,1.72-8.45,11.87,4.67,3.75,4.85,8.12-.18-1.23,13.52-3.46,5.07Z"/>
      </g>
      <path class="cls-1" d="m117.7,82.41c-6.94,1.93-13.12,6.45-17.38,12.22"/>
    </g>
    <path class="cls-5" d="m65.31,125.52c6.03,1.27,12.05-.6,17.85-2.1"/>
    <path class="cls-8" d="m36.18,91.01c-1.35-.59-2.67-1.27-3.94-2.01-3.12-1.84-5.96-4.14-8.35-6.92-5.47-6.35-7.52-14.63-7.31-23.03.09-3.54.62-7.06,1.58-10.46l.12.03.55-.73,86.87-3.62c3.79,8.1,5.41,17.7,3.6,26.57-1.92,9.41-7.94,16.24-16.31,20.19-7.49,3.53-16.46,3.9-24.58,4.36-8.74.5-17.61.08-26.11-2.21-2.08-.56-4.13-1.28-6.12-2.17Zm32.46-25.25c.17-.16.22-.36.17-.61h-.46s-.1.22-.1.22l-.21-.21-.45.05c-.03.33.09.57.43.7.06.02.11.04.17.06-.1.04-.22.09-.26.11.1-.02.21-.06.3-.1.07-.02.14-.06.21-.09.08-.04.15-.08.2-.13Zm19.12-8.55c.08-.74-.19-2.07-.54-2.72-.19-.31-.83-.8-1.18-.79-.35.02-.95.56-1.1.9-.19.42-.32.89-.36,1.29-.08.74.19,2.07.54,2.72.19.31.83.8,1.18.79.35-.03.95-.57,1.1-.9.19-.43.32-.89.36-1.29Zm-13.18,12.15c.03-.29-.02-.96-.06-1.26l-6.22-.64-6.12,1.21c-.02.3-.01.97.05,1.25.08.35.48.92.76,1.1.56.32,1.83.03,2.37-.29.89-.55,2.32-2.2,2.77-2.95.05-.09.1-.19.17-.32.08.12.15.22.2.3.52.71,2.09,2.22,3.03,2.69.57.27,1.87.43,2.39.06.26-.19.61-.8.66-1.15Zm-27.25-10.3c.07-.74-.19-2.07-.54-2.72-.19-.31-.83-.8-1.18-.78s-.95.56-1.11.89c-.18.43-.31.89-.36,1.29-.07.74.2,2.08.55,2.72.19.32.83.8,1.18.79.34-.02.94-.56,1.1-.89.19-.43.32-.9.36-1.3Z"/>
    <path class="cls-8" d="m106.79,86.51c1.83,1.63,2.49,4.2.95,6.25-.96,1.28-2.42,2.07-3.89,2.71-3.24,1.39-7.23,2.61-10.79,2.3l9.97-13.61c.66.11.8.58,1.26.77.56.23,1.87,1.03,2.5,1.58Z"/>
    <path class="cls-8" d="m103.15,21.24c1.93,7.33,2.73,15.14,2.67,22.69l-.09.11-24.28-21.46c.72-2.02,3.91-2.98,5.84-3.7,2.94-1.09,6.01-1.76,9.1-2.23,1.29-.2,2.66-.2,3.82.38,1.58.78,2.49,2.5,2.94,4.21Z"/>
    <path class="cls-8" d="m97.46,111.56c2.08,4.17-.61,10.4-3.52,13.47-1.28,1.37-2.88,2.51-4.72,2.88-2.8.58-6.29-1.19-6.26-4.39l5.19-8.17c1.17-1.89,2.79-3.5,4.7-4.65.84-.5,1.81-.93,2.77-.71.13.03.25.07.37.12.64.26,1.15.82,1.47,1.45Z"/>
    <path class="cls-8" d="m87.22,54.49c.35.65.62,1.98.54,2.72-.04.4-.17.86-.36,1.29-.15.33-.75.87-1.1.9-.35.01-.99-.48-1.18-.79-.35-.65-.62-1.98-.54-2.72.04-.4.17-.87.36-1.29.15-.34.75-.88,1.1-.9.35-.01.99.48,1.18.79Zm-.89,3.53c.07-.02.66-.61.16-2.49,0-.01-.01-.03-.03-.07l-.36-.07.23,2.63Z"/>
    <path class="cls-8" d="m86.49,55.53c.5,1.88-.09,2.47-.16,2.49l-.23-2.63.36.07s.03.06.03.07Z"/>
    <path class="cls-8" d="m74.52,68.1c.04.3.09.97.06,1.26-.05.35-.4.96-.66,1.15-.52.37-1.82.21-2.39-.06-.94-.47-2.51-1.98-3.03-2.69-.05-.08-.12-.18-.2-.3l6.22.64Z"/>
    <path class="cls-8" d="m68.81,65.15c.05.25,0,.45-.17.61l-.39-.39.1-.23h.46Z"/>
    <path class="cls-8" d="m68.19,65.97c-.06-.02-.11-.04-.17-.06l.23-.54.39.39c-.05.05-.12.09-.2.13-.07.03-.14.07-.21.09-.01,0-.03-.01-.04-.01Z"/>
    <path class="cls-8" d="m62.18,68.67l6.12-1.21c-.07.13-.12.23-.17.32-.45.75-1.88,2.4-2.77,2.95-.54.32-1.81.61-2.37.29-.28-.18-.68-.75-.76-1.1-.06-.28-.07-.95-.05-1.25Z"/>
    <path class="cls-8" d="m68.25,65.37l-.23.54c-.34-.13-.46-.37-.43-.7l.45-.05.21.21Z"/>
    <path class="cls-8" d="m68.19,65.97s.03.01.04.01c-.09.04-.2.08-.3.1.04-.02.16-.07.26-.11Z"/>
    <path class="cls-8" d="m65.22,119.35c.42,5.26-5.72,16.31-12.02,10.79-.88-.78-1.41-2.03-1.1-3.16l3.09-6.62c1.08-2.69,3.84-7.07,7.4-5.59,1.71.71,2.48,2.73,2.63,4.58Z"/>
    <path class="cls-8" d="m30.32,109.63l21.74,17.34c-8.08-.2-16.12-4.43-20.21-11.52-.79-1.36-1.7-3.95-1.95-4.84l-.64-.26c.36-.22.71-.46,1.06-.72Z"/>
    <path class="cls-8" d="m46.79,56.34c.35.65.61,1.98.54,2.72-.04.4-.17.87-.36,1.3-.16.33-.76.87-1.1.89-.35,0-.99-.47-1.18-.79-.35-.64-.62-1.98-.55-2.72.05-.4.18-.86.36-1.29.16-.33.76-.87,1.11-.89s.99.47,1.18.78Z"/>
    <path class="cls-8" d="m37.09,23.46l-18.12,24.24-.27-.2c-1.68-4.14-2.61-8.49-3.01-12.93-.36-4.07-.64-10.05,2.99-12.78,2.03-1.52,13.74.7,18.41,1.67Z"/>
    <path class="cls-8" d="m30.32,109.63c-.35.26-.7.5-1.06.72-.18.11-.36.22-.54.32-.81.44-1.75.78-2.64.57-1.18-.28-1.95-1.42-2.33-2.56-2.32-6.85,4.05-15.13,8.49-19.68,1.27.74,2.59,1.42,3.94,2.01l-.67,12.14c-1.21,2.39-3,4.8-5.19,6.48Z"/>
    <path class="cls-13" d="m32.77,108.43c42.7-5.31,51.74-5.91,51.36-5.35-.36.52-8.72,1.86-20.71,4.73-14.15,3.39-24.9,6.88-32.03,9.43l1.39-8.8Z"/>
    <path class="cls-8" d="m31.63,115.4l3.88,5.26c-3.92,3.14-7.27,4.2-12.16,5.19-6.14,1.18-13.06,1.33-18.6-1.99-.82-.49-1.62-1.08-2.09-1.91-2.07-3.62,2.71-5.57,5.38-5.95,4.54-.65,9.14-.24,13.69.03,2.28.14,4.56.25,6.84.19,1.79-.05,1.47.1,3.06-.82Z"/>
    <path class="cls-13" d="m68.41,23.56c-.92,20.39-2.06,24.89-2.98,24.89-.85,0-1.22-3.89-3.47-9.12-2.66-6.17-6.36-10.54-9.22-13.35l15.67-2.42Z"/>
    <path class="cls-13" d="m24.73,98.99c6.45,2.38,7.79,3.24,7.71,3.56-.08.3-1.36.04-3.25.31-2.23.32-3.98,1.2-5.15,1.93l.69-5.81Z"/>
    <ellipse class="cls-10" cx="59.39" cy="123.06" rx="7.26" ry="4.65" transform="translate(-76.88 112.96) rotate(-60)"/>
    <path class="cls-10" d="m14.41,116.22c2.17,3.14,1.55,8.5-.46,10.55-3.43,3.49-11.59-1.98-11.65-6.4-.03-2.62,2.79-4.77,4.45-5.57.43-.2,5.08-2.32,7.66,1.41Z"/>
    <path class="cls-7" d="m15.93,128.77c-4.78,0-8.89-1.02-12.29-3.06-.94-.56-2.11-1.37-2.86-2.7-.93-1.62-1.04-3.35-.3-4.86,1.26-2.58,4.7-3.92,7.25-4.29,4.24-.61,8.47-.34,12.57-.08l1.56.1c2.48.15,4.56.24,6.65.19h.66c.23-.02.39-.01.52-.03.02-.02.36-.22.69-.41l.16-.09c1.03-.6,2.35-.25,2.95.79.6,1.03.24,2.35-.79,2.95l-.16.09c-1.46.85-1.81.98-3.32,1.01h-.61c-2.25.07-4.44-.02-7.03-.18l-1.57-.1c-3.88-.24-7.88-.49-11.69.05-1.75.25-3.61,1.14-3.98,1.91-.04.08-.14.29.17.83.26.46.88.86,1.32,1.13,4.2,2.51,9.94,3.09,17.08,1.72,4.78-.97,7.69-1.93,11.22-4.75.93-.75,2.29-.6,3.04.33.75.93.6,2.29-.34,3.04-4.18,3.35-7.82,4.56-13.08,5.62-2.79.54-5.41.8-7.85.8Z"/>
    <ellipse class="cls-10" cx="91.29" cy="119.8" rx="8.12" ry="4.65" transform="translate(-59.33 119.06) rotate(-52.41)"/>
    <path class="cls-7" d="m56.75,133.81c-1.73,0-3.43-.69-4.97-2.04-1.58-1.4-2.27-3.5-1.76-5.36.32-1.15,1.51-1.83,2.65-1.51,1.15.32,1.83,1.5,1.51,2.65-.06.22.1.67.45.97,1.5,1.31,2.59,1.03,3.38.63,2.83-1.42,5.29-6.72,5.06-9.63-.09-1.14-.53-2.44-1.31-2.76-.42-.17-.78-.18-1.19,0-1.33.56-2.68,2.67-3.38,4.4-.44,1.11-1.7,1.64-2.81,1.2-1.11-.44-1.64-1.7-1.2-2.81.5-1.24,2.37-5.38,5.71-6.78,1.47-.62,3.04-.62,4.52,0,2.23.92,3.7,3.32,3.95,6.4.35,4.41-2.88,11.56-7.42,13.84-1.06.53-2.13.79-3.2.79Z"/>
    <path class="cls-7" d="m88.65,128.88c-1.64,0-3.3-.54-4.55-1.53-1.4-1.1-2.16-2.63-2.14-4.31,0-1.04.89-1.87,1.97-1.87h.02c1.09.01,1.96.86,1.95,1.91,0,.53.23.99.7,1.36.69.54,1.75.79,2.64.61,1.38-.27,2.54-1.21,3.27-1.96,2.46-2.48,4.24-7.05,2.89-9.65-.12-.22-.27-.34-.32-.36-.08-.02-.34-.05-1.12.39-1.46.84-2.71,2.03-3.62,3.44-.57.89-1.79,1.16-2.71.61-.93-.55-1.21-1.71-.64-2.6,1.24-1.92,2.95-3.54,4.95-4.69.94-.54,2.37-1.2,3.99-.84.22.05.44.12.66.21.96.37,1.8,1.14,2.33,2.15,2.44,4.69-.6,10.97-3.54,13.94-1.6,1.64-3.45,2.71-5.35,3.07-.45.09-.92.13-1.38.13Z"/>
    <path class="cls-7" d="m52.06,129.13s-.04,0-.05,0c-9.1-.23-17.74-5.17-22.03-12.6-.96-1.66-1.93-4.53-2.16-5.33-.32-1.15.35-2.34,1.5-2.66,1.15-.33,2.34.35,2.66,1.5.22.78,1.07,3.2,1.74,4.34,3.55,6.16,10.77,10.26,18.4,10.45,1.19.03,2.14,1.02,2.11,2.21-.03,1.17-.99,2.11-2.16,2.11Z"/>
    <path class="cls-12" d="m34.61,30c-1.65-.45-3.79-.94-6.36-1.44-1.71-.34-3.47-.48-4.78-.48-.86,0-1.58.65-1.66,1.5-.1,1.12-.14,2.36-.05,3.69.3,4.85,2.01,8.59,3.29,10.82"/>
    <path class="cls-13" d="m29.78,89.97c5.27,6.93,6.09,8.86,5.75,9.25-.31.36-1.52-.73-3.78-1.45-2.67-.85-5.22-.68-7.05-.37l5.07-7.42Z"/>
    <ellipse class="cls-10" cx="68.02" cy="70.73" rx="15.71" ry="10.55" transform="translate(-2.09 2.07) rotate(-1.72)"/>
    <path class="cls-7" d="m95.99,112.27c-.19,0-.39-.03-.59-.08-1.15-.33-1.81-1.52-1.49-2.67.14-.5.25-1.05.32-1.66.32-2.62-.23-4.85-.45-5.42-.52-1.38-1.1-2.21-1.88-2.7-1.01-.64-1.3-1.97-.67-2.98s1.97-1.31,2.98-.67c2.09,1.33,3.06,3.38,3.6,4.8.43,1.11,1.12,4.11.71,7.5-.1.84-.25,1.6-.46,2.31-.27.95-1.14,1.57-2.08,1.57Z"/>
    <path class="cls-7" d="m94.22,99.98c-.46,0-.91-.02-1.34-.06-1.19-.1-2.07-1.15-1.96-2.34.1-1.19,1.16-2.07,2.34-1.96,2.6.23,5.97-.51,9.75-2.13,1.1-.48,2.32-1.09,3.01-2.02.86-1.14.29-2.5-.66-3.34-.43-.38-1.54-1.06-1.89-1.2-.51-.21-.85-.5-1.06-.7-1.03-.31-1.69-1.34-1.51-2.42.19-1.18,1.3-1.97,2.48-1.78,1.02.17,1.62.72,1.91.98.8.37,2.16,1.21,2.92,1.87,2.84,2.53,3.36,6.38,1.26,9.17-1.31,1.74-3.23,2.73-4.76,3.39-3.92,1.68-7.44,2.53-10.5,2.53Zm8.46-13.69h.01-.01Z"/>
    <path class="cls-7" d="m26.65,113.46c-.36,0-.72-.04-1.06-.12-1.77-.42-3.18-1.87-3.88-3.98-2.77-8.17,4.45-17.21,8.99-21.87.82-.84,2.18-.89,3.04-.08.86.81.92,2.14.13,3.01-.03.03-.08.08-.1.11-2.4,2.46-10.14,11.06-7.97,17.46.24.73.6,1.11.78,1.15.03,0,.33.06,1.11-.37.14-.08.29-.17.44-.26.31-.19.6-.39.9-.61,1.73-1.33,3.36-3.37,4.55-5.72.54-1.07,1.84-1.49,2.9-.95s1.49,1.84.95,2.9c-1.48,2.92-3.54,5.48-5.8,7.22-.45.33-.85.61-1.25.85-.2.12-.41.25-.62.37-1.12.61-2.15.91-3.12.91Z"/>
    <path class="cls-7" d="m62.07,97.74c-7.49,0-14.19-.82-20.33-2.47-2.22-.6-4.39-1.37-6.44-2.28-1.36-.59-2.76-1.31-4.15-2.12-3.44-2.03-6.44-4.51-8.9-7.38-5.37-6.23-8.08-14.7-7.83-24.49.09-3.73.65-7.42,1.66-10.99.08-.3.17-.6.27-.92.36-1.14,1.57-1.77,2.71-1.42,1.14.36,1.77,1.57,1.42,2.71-.08.27-.16.52-.23.79-.91,3.23-1.42,6.57-1.5,9.94-.15,6.07.9,14.74,6.79,21.57,2.16,2.51,4.78,4.68,7.81,6.47,1.23.72,2.48,1.35,3.71,1.89,1.86.83,3.81,1.52,5.82,2.06,7.4,1.99,15.72,2.69,25.43,2.14l1-.06c7.86-.44,15.98-.89,22.79-4.1,8.18-3.86,13.41-10.32,15.11-18.67,1.61-7.91.36-17.1-3.44-25.22-.02-.04-.04-.09-.06-.14-.48-1.06-.04-2.36,1.01-2.87,1.07-.52,2.34-.11,2.86.96l-1.94.95,1.94-.94c.04.09.09.18.12.27,4.16,8.93,5.52,19.07,3.73,27.85-1.96,9.6-8.18,17.31-17.5,21.71-7.57,3.57-16.5,4.07-24.39,4.51l-.99.06c-2.22.13-4.38.19-6.47.19Zm41.64-52.65h.01-.01Zm-.04-.11h0s0,0,0,0Zm0-.01s0,0,0,.01c0,0,0,0,0-.01Zm0,0s0,0,0,0c0,0,0,0,0,0Z"/>
    <path class="cls-7" d="m18.7,49.66c-.85,0-1.66-.51-2-1.35-1.65-4.08-2.72-8.63-3.16-13.55-.32-3.6-.98-11.07,3.84-14.7.91-.68,3.04-2.27,20.15,1.28l.29.06c.65.13,1.15.24,1.42.3,1.16.26,1.9,1.42,1.64,2.58-.26,1.16-1.42,1.89-2.58,1.64-.26-.06-.73-.16-1.35-.28l-.29-.06c-10.38-2.16-15.66-2.38-16.76-2-2.81,2.23-2.28,8.23-2.05,10.8.4,4.49,1.37,8.63,2.86,12.31.45,1.11-.08,2.37-1.19,2.81-.27.11-.54.16-.81.16Z"/>
    <path class="cls-7" d="m105.82,46.09h-.02c-1.19,0-2.15-.98-2.14-2.18.06-7.89-.81-15.33-2.6-22.12-.37-1.41-1.03-2.44-1.81-2.82-.58-.29-1.43-.35-2.53-.18-3.43.52-6.18,1.19-8.68,2.12l-.63.23c-1.18.43-3.62,1.31-3.93,2.17-.4,1.12-1.64,1.71-2.76,1.31-1.12-.4-1.71-1.64-1.31-2.76.99-2.78,4.19-3.94,6.53-4.78l.59-.22c2.78-1.03,5.81-1.78,9.53-2.34,2.03-.31,3.7-.12,5.11.58,1.92.95,3.36,2.94,4.06,5.59,1.88,7.16,2.81,14.98,2.74,23.26,0,1.19-.98,2.14-2.16,2.14Z"/>
    <path class="cls-7" d="m45.92,63.41c-1.39,0-2.62-1.07-3.08-1.85-.59-1.08-.95-2.86-.84-4.03.08-.66.26-1.3.52-1.92.02-.04.03-.07.05-.11.4-.83,1.57-2.02,2.93-2.1h0c1.35-.08,2.65,1.01,3.14,1.81.02.04.04.07.06.11.54,1.01.9,2.78.79,3.95-.06.64-.25,1.33-.53,1.97-.43.9-1.61,2.1-2.95,2.17-.03,0-.05,0-.08,0Z"/>
    <path class="cls-7" d="m86.3,61.56c-1.31,0-2.54-1.06-3.01-1.82-.02-.04-.04-.07-.06-.11-.56-1.04-.91-2.82-.79-3.98.06-.62.25-1.32.54-1.95.36-.82,1.55-2.09,2.95-2.17.04,0,.08,0,.13,0,1.31,0,2.55,1.06,3.02,1.82.02.03.04.07.06.1.56,1.04.91,2.82.79,3.97-.06.61-.25,1.28-.53,1.93-.37.82-1.54,2.06-2.89,2.18-.06,0-.13,0-.19,0Zm.62-6.09s0,0,0,.01c0,0,0,0,0-.01Z"/>
    <path class="cls-7" d="m86.33,60.18c-.43,0-.86-.13-1.23-.38-.53-.37-.87-.95-.92-1.59l-.23-2.63c-.1-1.19.78-2.24,1.96-2.34.29-.03.57,0,.83.09.69.08,1.32.5,1.65,1.17.07.14.13.31.18.48h0c.79,2.98-.31,4.74-1.67,5.12-.19.05-.39.08-.58.08Z"/>
    <path class="cls-7" d="m63.67,73.31c-.6,0-1.21-.12-1.75-.42-.03-.02-.06-.04-.09-.06-.76-.49-1.49-1.54-1.7-2.44-.14-.67-.11-1.65-.1-1.88.08-1.19,1.1-2.09,2.3-2.01,1.19.08,2.09,1.11,2.01,2.3,0,0,0,0,0,.01.48-.34,1.61-1.6,1.94-2.15l.12-.24c.57-1.05,1.88-1.44,2.93-.87,1.05.57,1.44,1.88.87,2.93l-.19.35c-.62,1.04-2.27,2.96-3.52,3.73-.56.33-1.69.75-2.83.75Zm.69-3.8h.01-.01Z"/>
    <path class="cls-7" d="m72.96,72.88c-.97,0-1.88-.26-2.35-.48-1.35-.67-3.17-2.44-3.85-3.37-.03-.04-.06-.09-.09-.14l-.17-.25c-.66-1-.39-2.33.61-2.99.99-.66,2.33-.39,2.99.61l.08.11c.04.05.07.1.1.15.41.53,1.54,1.59,2.11,1.93,0-.03,0-.05,0-.07-.16-1.18.67-2.27,1.86-2.43,1.18-.15,2.27.67,2.43,1.86,0,.01.14,1.09.07,1.77-.13.9-.73,2.09-1.54,2.67-.66.47-1.46.63-2.23.63Zm1.62-3.52h0,0Z"/>
    <path class="cls-7" d="m68.55,68.22c-.21,0-.41-.03-.62-.09-.14-.04-.28-.09-.4-.15-.06-.03-.12-.06-.18-.1-.85-.52-1.27-1.6-.97-2.55.31-.99,1.25-1.61,2.32-1.54,1.19.08,2.09,1.11,2.01,2.3,0,.11-.02.22-.04.32-.03.2-.1.4-.19.59-.37.77-1.14,1.21-1.94,1.21Zm-.07-2.18h0,0Z"/>
    <path class="cls-7" d="m68.49,68.2c-.09,0-.18,0-.26-.02-.25-.03-.5-.09-.73-.18-1.12-.41-1.7-1.65-1.29-2.77.4-1.08,1.57-1.66,2.65-1.33,1.12.2,1.91,1.24,1.77,2.39-.13,1.09-1.06,1.9-2.14,1.9Z"/>
    <path class="cls-7" d="m68.02,68.07c-.26,0-.52-.05-.77-.14-1.22-.46-1.93-1.61-1.81-2.91.09-1.02.89-1.84,1.91-1.95l.45-.05c1.19-.15,2.25.72,2.38,1.91.03.23.01.46-.03.67.05.36.02.73-.12,1.09-.33.86-1.15,1.39-2.02,1.39Zm.77-4.18s0,0,0,0c0,0,0,0,0,0Z"/>
    <path class="cls-7" d="m67.89,68.27c-.78,0-1.53-.44-1.91-1.19-.54-1.06-.09-2.38.97-2.92.04-.02.14-.07.25-.11.27-.16.58-.27.91-.3,1.07-.11,2.09.59,2.35,1.63.26,1.04-.41,2.17-1.4,2.58l-.2.08c-.31.16-.64.23-.96.23Z"/>
    <path class="cls-7" d="m67.93,68.24c-1.19,0-2.17-.97-2.17-2.16,0-.5.17-.97.46-1.34.19-1.02,1.11-1.8,2.17-1.76h.46c1.01.03,1.87.76,2.07,1.75.2.99-.1,1.93-.81,2.6-.24.23-.52.39-.72.49-.04.02-.07.03-.11.05-.09.05-.19.09-.29.12-.22.09-.44.16-.65.2-.14.03-.29.04-.43.04Zm-.33-4.33s0,0,0,0c0,0,0,0,0,0Zm.02,0s-.01,0-.02,0c0,0,.01,0,.02,0Zm0,0s0,0,0,0c0,0,0,0,0,0Z"/>
    <path class="cls-13" d="m81.23,19.87c-.92,20.39-2.06,24.89-2.98,24.89-.85,0-1.22-3.89-3.47-9.12-2.66-6.17-6.36-10.54-9.22-13.35l15.67-2.42Z"/>
    <path class="cls-12" d="m84.83,26.92c1.61-.85,3.72-1.87,6.26-3,1.7-.75,3.48-1.34,4.85-1.66.89-.21,1.79.23,2.07,1.04.36,1.06.68,2.26.9,3.58.8,4.8-.12,8.87-.93,11.36"/>
    <path class="cls-13" d="m52.73,21.01c-.92,20.39-2.06,24.89-2.98,24.89-.85,0-1.22-3.89-3.47-9.12-2.66-6.17-6.36-10.54-9.22-13.35l15.67-2.42Z"/>
    <path class="cls-3" d="m35.97,30.13c.02-4.87,2.36-10.3,4.46-14.63s4.83-8.27,8.92-10.87c8.38-5.32,18.64-1.41,24.61,5.64,3.88,4.59,5.96,10.38,7.54,16.09"/>
    <path class="cls-3" d="m35.97,30.13c4.5,2.42,10.75,4.02,16.32,5.37,6.97,1.69,14.67,1.91,22.34,1.65,3.76-.13,7.54-.22,11.24-.97,3.1-.63,7.3-1.48,9.6-3.84,1.19-1.22,1.75-3.23.83-4.67-.56-.87-1.55-1.37-2.53-1.72-2.72-.98-8.15-.52-10.97.14"/>
    <path class="cls-3" d="m48.92,34.67c5.57.67,29.66-.74,32.58-7.79"/>
    <circle class="cls-11" cx="64.07" cy="20.63" r="9.33"/>
    <ellipse class="cls-12" cx="96" cy="68.1" rx="9.65" ry="6.61"/>
    <ellipse class="cls-12" cx="35.52" cy="70" rx="9.65" ry="6.61"/>
    <g id="_레이어_7" data-name="레이어 7">
      <path class="cls-4" d="m74.47,114.29c-1.99.14-4.13-.48-5.78-1.58-1.31-.88-2.37-2.22-2.63-3.77-.15-.86-.05-1.74.2-2.58.62-2.09,2.51-4.17,4.67-4.73,2.61-.69,5.64.55,7.42,2.47,1.58,1.71,2.37,4.11,2.13,6.43-.08.73-.24,1.52.12,2.16.29.51.85.79,1.35,1.1.72.44,1.39.99,1.96,1.62.28.31.56.75.37,1.13-.09.17-.26.28-.42.38-1.22.73-2.73,1.29-4.17,1.01-1.76-.34-3.98-2.03-5.07-3.46"/>
      <path class="cls-2" d="m42.49,94.23c4.6,8.01,12.24,14.18,21.69,14.71"/>
      <path class="cls-2" d="m84.78,94.23s.14,3.08-.05,4.42c-.1.69-.48,2.12-.74,2.76-.62,1.5-2.21,3.8-2.92,4.44-.08.07-.21.17-.37.28"/>
    </g>
  </g>
</svg>