<?xml version="1.0" encoding="UTF-8"?>
<svg id="Layer_2" data-name="Layer 2" xmlns="http://www.w3.org/2000/svg" viewBox="0 0 148.92 124.78">
  <defs>
    <style>
      .cls-1 {
        stroke-miterlimit: 10;
      }

      .cls-1, .cls-2, .cls-3, .cls-4, .cls-5, .cls-6, .cls-7, .cls-8, .cls-9 {
        stroke: #000;
        stroke-linecap: round;
      }

      .cls-1, .cls-2, .cls-8, .cls-9 {
        fill: none;
      }

      .cls-1, .cls-9 {
        stroke-width: 3px;
      }

      .cls-2 {
        stroke-width: 5px;
      }

      .cls-2, .cls-3, .cls-4, .cls-5, .cls-6, .cls-7, .cls-8, .cls-9 {
        stroke-linejoin: round;
      }

      .cls-3, .cls-4, .cls-5, .cls-6, .cls-7, .cls-8 {
        stroke-width: 4.32px;
      }

      .cls-3, .cls-10 {
        fill: #fff;
      }

      .cls-4 {
        fill: #ff9494;
      }

      .cls-5 {
        fill: #c29f78;
      }

      .cls-6 {
        fill: #aaeaff;
      }

      .cls-11 {
        fill: #ff8694;
      }

      .cls-11, .cls-10, .cls-12 {
        stroke-width: 0px;
      }

      .cls-12 {
        fill: #ffcbbf;
      }
    </style>
  </defs>
  <g id="_레이어_1" data-name="레이어 1">
    <path class="cls-5" d="m38.85,90.83c-1.6-.89-4.59-2.84-5.99-3.93-1.39-1.11-4.05-3.54-5.28-4.83-1.41-1.49-3.26-3.8-4.4-5.49-.98-1.47-2.75-4.57-3.51-6.15-.74-1.58-1.94-4.87-2.42-6.58-.48-1.72-1.25-5.44-1.43-6.91-.17-1.47-.29-5.29-.22-7.09.07-1.79.47-5.31.82-7.06.37-1.75,1.36-5.25,1.97-6.96.7-1.96,1.96-4.73,2.97-6.58.89-1.61,2.89-4.73,3.98-6.2,1.1-1.46,3.54-4.22,4.87-5.54,1.34-1.32,4.38-3.96,5.64-4.9,1.26-.93,4.68-3.09,6.36-4,1.67-.91,5.06-2.47,6.81-3.12,1.76-.64,5.41-1.71,7.25-2.12,2.11-.48,5.22-.94,7.37-1.09,1.87-.13,5.64-.16,7.49-.06,1.84.12,5.48.65,7.3,1.04,1.83.4,5.63,1.48,7.06,2.02,1.43.54,4.98,2.2,6.58,3.09,1.6.89,4.59,2.84,5.99,3.93,1.39,1.11,4.06,3.54,5.28,4.83,1.41,1.49,3.26,3.8,4.4,5.49.98,1.47,2.75,4.57,3.51,6.15.74,1.58,1.94,4.87,2.42,6.58.48,1.72,1.25,5.44,1.43,6.91.17,1.47.29,5.29.22,7.09-.07,1.79-.47,5.31-.82,7.06-.37,1.75-1.36,5.25-1.97,6.96-.7,1.96-1.96,4.73-2.97,6.58-.89,1.61-2.89,4.73-3.98,6.2-1.1,1.46-3.54,4.22-4.87,5.54l-61.86,9.15Z"/>
    <path class="cls-10" d="m64.78,69.3c-13.35,1.11-26.48,16.29-24.32,27.72,1.28,6.76,7.97,12.45,12,15.89,2.66,2.27,4.72,4.02,7.96,5.38,3.37,1.42,7.16,2.04,22.04-.19,4.29-.64,8.62-1.21,12.84-2.22,3.91-.94,7.23-2.8,9.94-5.83,2.77-3.09,5.14-7.28,4.6-11.56-.49-3.92-3.22-6.8-18.16-15.89-14.97-9.11-22.54-13.66-26.91-13.29Z"/>
    <path class="cls-10" d="m37.93,18.77c-4.82-2.79-17.62,4.83-16.58,12.28.77,5.51,9.03,10.29,14.22,8.18,6.98-2.83,7.17-17.68,2.37-20.46Z"/>
    <path class="cls-4" d="m87.79,91.57c1.57,2.58,2.59,3.92,3.54,4.57.77.52,2.47.92,3.43.86.52-.04,1.89-.47,2.52-.83,1.15-.69,3.48-3,4.42-4.27.85-1.16,2.05-3.37,2.75-5.24.13-.38.43-1.2.48-1.34.1-.3.25-.76.3-.95"/>
    <g>
      <g>
        <path class="cls-11" d="m140.71,72.52c2.23,8.45-13.69,3.8-5.89-1.72-7.8,5.52-8.3-11.06-.18-6.13-8.12-4.92,7.5-10.52,5.77-2.07,1.72-8.45,11.87,4.67,3.75,4.85,8.12-.18-1.23,13.52-3.46,5.07Z"/>
        <path class="cls-9" d="m140.71,72.52c2.23,8.45-13.69,3.8-5.89-1.72-7.8,5.52-8.3-11.06-.18-6.13-8.12-4.92,7.5-10.52,5.77-2.07,1.72-8.45,11.87,4.67,3.75,4.85,8.12-.18-1.23,13.52-3.46,5.07Z"/>
      </g>
      <path class="cls-1" d="m132.94,72.11c-6.94,1.93-13.12,6.45-17.38,12.22"/>
    </g>
    <path class="cls-3" d="m37.25,96.96c-3.35.59-6.64-.32-9.53-2.02-1.78-1.04-3.33-2.5-4.93-3.8-4.43-3.6-8.86-7.35-14.03-9.88-1.66-.81-3.86-1.44-5.21-.17-.79.75-.99,1.91-1.13,2.99-.32,2.49-.52,5.09.38,7.43,1.23,3.22,4.29,5.37,7.4,6.86,2.95,1.42,6.08,2.43,9.2,3.44-1.02.93-2.06,1.89-2.74,3.09s-.97,2.72-.41,3.98c.92,2.07,3.59,2.64,5.86,2.65,4.67.03,9.34-1.1,13.46-3.28-.64.93-1.3,1.89-1.59,2.98s-.17,2.37.61,3.19c1.04,1.11,2.81,1.04,4.3.74,3.59-.73,7-2.39,9.79-4.76"/>
    <g>
      <path class="cls-3" d="m65.46,118.26c.02.19.03.26,0,.61-.17,2.28,2.35,3.76,4.39,3.75,1.52,0,2.96-.71,4.16-1.64,2.89-2.22,4.67-5.82,4.7-9.47,0-1.44-.26-2.92-1.1-4.09s-2.32-1.94-3.73-1.63c-.88.19-1.62.77-2.27,1.4-1.29,1.26-2.31,2.79-2.98,4.47"/>
      <path class="cls-3" d="m97.86,114.91c0,.63-1.05,2.04-.58,2.65.45.57,1.39,1.21,1.72,1.35.42.18,1.37.39,1.86.42.52.03,1.59-.11,2.15-.3.59-.2,1.79-.86,2.38-1.32.58-.45,1.66-1.54,2.14-2.14.93-1.17,2.18-3.79,2.5-5.12.47-1.95.98-5.74-1.12-7.06-.73-.46-1.69-.35-2.5-.06-2.24.8-3.82,2.77-5.18,4.57"/>
      <g>
        <path class="cls-3" d="m78.76,116.75s.3.07.42.11c1.13.35,3.96.54,5.88.34,1.75-.18,5.51-1.02,7.26-1.43,1.76-.44,3.54-.84,5.28-1.36"/>
        <path class="cls-3" d="m42.95,100.65c.24.89,1.55,4.73,2.34,6.08,1.05,1.8,2.88,3.97,4.09,5.04,1.17,1.03,3.42,2.61,4.97,3.49,1.21.68,4.2,1.86,5.9,2.28.9.22,2.82.57,3.53.63.18.01,1.09.06,1.69.08"/>
        <path class="cls-3" d="m105.54,88.53c1.63,2.06,2.68,4.46,2.97,7.09.27,2.42-.02,4.87-.49,7.27"/>
      </g>
      <path class="cls-3" d="m113.81,74.1c.66.11,2.22.58,2.69.77,2.7,1.11,5.64,4.27,3.8,7.29-.72,1.18-1.9,1.99-3.11,2.65-3.63,1.99-7.79,3-11.93,2.9"/>
      <path class="cls-3" d="m44.93,81.53c-1.57,1.61-2.81,3.06-4.42,5.2-2.7,3.67-4.94,9.07-3.21,13.62.35.91.94,1.81,1.86,2.14.78.28,1.66.1,2.43-.23,2.68-1.12,4.91-3.8,6.44-6.21.18-.29.75-1.25.96-1.59"/>
    </g>
    <path class="cls-8" d="m44.5,101.15c-.38,1.69-.2,3.47.66,5"/>
    <path class="cls-6" d="m44.93,81.53c.22,1.2-1.44,3.48-1.95,4.57-.06.12-.11.24-.09.37.02.13.12.24.22.34,3.06,3.1,6.9,5.82,11.04,7.28,1.9.66,5.1,1.3,6.87,1.43,1.63.11,5-.08,6.66-.32,1.26-.19,4.91-1,6.62-1.47,4.31-1.3,7.61-2.73,8.21-3.04.38-.19,1.15-.61,1.43-.77"/>
    <g>
      <path class="cls-3" d="m86.48,14.98l-.12.02c.73-.12,2.33-2.11,2.87-2.58,1.43-1.25,2.85-2.5,4.28-3.75,1.62-1.42,4.02-.32,5.74.47,3.98,1.82,7.69,4.17,11.01,6.96,3.02,2.53,11.74,8.99,8.09,13.62-.96,1.22-2.75,1.78-4.27,1.33"/>
      <path class="cls-3" d="m42.95,17.77c1.87-1.13,3.85-2.03,6.15-2.86,1.79-.6,5.51-1.8,7.44-2.27,1.89-.45,5.52-1.01,7.3-1.15,1.12-.09,6.13-.18,7.16-.13,1.06.05,5.49.49,7.35.75,1.84.31,5.46,1.05,7.23,1.55,1.77.53,5.3,1.75,7.03,2.42,2.46,1.03,4.25,1.89,6.56,3.15,1.57.91,4.93,3.06,6.09,3.88,1.45,1.06,4.27,3.45,5.62,4.76,1.34,1.31,3.96,4.21,4.89,5.47,1.16,1.58,3.15,4.77,4,6.41.96,1.86,2.14,5.03,2.61,6.69.48,1.73,1.14,5.4,1.21,6.91.08,1.89-.14,5.58-.45,7.38-.31,1.8-1.44,5.27-2.21,6.97-.75,1.66-2.47,4.6-3.7,6.17-1.08,1.37-3.48,3.93-4.86,5.16-1.15,1.02-4.38,3.28-6.03,4.24-1.6.93-4.76,2.46-6.72,3.18-1.71.63-5.3,1.68-7.13,2.1-1.8.39-4.97.84-7.13,1.04-1.82.12-6.27.24-7.26.2-.99-.04-5.49-.49-7.35-.75-1.84-.31-5.46-1.05-7.23-1.55-1.77-.53-5.3-1.75-7.03-2.42-2.46-1.03-4.25-1.89-6.56-3.15-1.57-.91-4.93-3.06-6.09-3.88-1.45-1.06-4.27-3.45-5.62-4.75-1.34-1.31-3.96-4.21-4.89-5.47-1.16-1.58-3.15-4.77-4-6.41-.9-1.76-2.16-4.94-2.65-6.59-.54-1.8-1.11-5.27-1.14-7.08-.03-2.28.82-11.15,1.04-12.06"/>
      <path class="cls-3" d="m43.04,17.8c-1.92-2.66-4.35-4.96-7.1-6.73-3.8-2.45-6.37.18-9.54,2.28-1.37.94-4.05,3-5.41,4.12-1.86,1.59-4.38,4-5.11,4.77-1.17,1.24-3.04,3.56-4.37,5.57-.91,1.39-2.27,4.54-2.46,5.51-.14.76-.25,1.85-.23,2.42.03.57.27,1.56.48,1.98.23.42.89,1.12,1.32,1.39.42.25,1.41.62,1.96.72.83.15,3.3.07,5.16-.36,1.76-.46,5.7-2.21,5.65-2.22.54-.32,2.11-1.45,2.87-2,.62-.46-.11.08.4-.29"/>
    </g>
    <path class="cls-7" d="m99.23,53.89c1.59-.12,5.3-.02,7.06.19,1.65.2,5.3,1.19,6.92,1.87.8.34,2.36,1.23,3.06,1.73.72.51,2.04,1.7,2.44,2.18.5.62,1.34,2.17,1.59,2.95.27.87.38,2.22.24,3.12-.13.8-.71,2.47-1.11,3.16-.31.53-1.44,1.92-2.07,2.53-1.33,1.29-4.25,3.1-5.89,3.84-1.8.81-5.11,1.75-6.83,2.07-1.93.36-5.11.61-7.08.56-1.74-.05-5.16-.46-7.06-.98-1.74-.48-4.91-1.8-6.42-2.88-.72-.51-2.05-1.7-2.44-2.18-.5-.61-1.34-2.17-1.59-2.94-.27-.87-.38-2.22-.25-3.12.13-.81.71-2.47,1.11-3.16.31-.53,1.44-1.92,2.06-2.53,1.33-1.3,4.25-3.1,5.89-3.84,1.8-.81,5.11-1.75,6.83-2.07.88-.16,2.8-.43,3.52-.48Z"/>
    <path class="cls-2" d="m53.7,42.62c-3.33.79-6.49,2.26-9.24,4.3"/>
    <ellipse class="cls-12" cx="50.87" cy="60.16" rx="9.65" ry="6.61"/>
  </g>
</svg>